<svg viewBox="0 0 10 10" xmlns="http://www.w3.org/2000/svg"
     xmlns:xlink="http://www.w3.org/1999/xlink">
    <defs>
        <symbol id="icon-book" viewBox="0 -0.254 67.415 100.431">
            <title>Open Book</title>
            <path d="M60.879,18.302L16.899-0.112l-0.537-0.122C11.964-0.458,7.43,1.216,4.244,4.244C1.507,6.845,0,10.212,0,13.726v1.6h0.015 v57.817c0,3.386,2.538,7.086,5.646,8.246l42.017,18.43c0.638,0.237,1.266,0.358,1.868,0.358c1.675,0,2.947-0.928,3.545-2.426 l7.554-6.187c1.622,0.371,3.198,0.117,4.43-0.736c1.487-1.033,2.34-2.846,2.34-4.977v-58C67.415,23.876,64.547,19.688,60.879,18.302 z M64.215,85.852c0,1.082-0.342,1.916-0.965,2.348c-0.596,0.415-1.449,0.447-2.402,0.092l-1.573,0.261l-5.799,4.749V37.692 c0-3.385-2.538-7.085-5.646-8.245L5.812,11.018c-0.613-0.229-2.222-0.831-0.581-3.084c0.363-0.478,0.763-0.939,1.217-1.37 c2.497-2.374,6.017-3.714,9.481-3.613L59.67,21.266l0.059,0.023c2.432,0.908,4.486,3.913,4.486,6.563V85.852z"/>
        </symbol>
        <symbol id="icon-note" viewBox="0 0 32 32">
            <path d="M10 6l22-6v23c0 2.761-3.134 5-7 5s-7-2.239-7-5c0-2.761 3.134-5 7-5 1.074 0 2.091 0.173 3 0.481v-10.3l-14 3.818v15c0 2.761-3.134 5-7 5s-7-2.239-7-5c0-2.761 3.134-5 7-5 1.074 0 2.091 0.173 3 0.481v-16.481z"/>
        </symbol>
        <symbol id="icon-flower" viewBox="0 0 100 100">
            <path d="M79.085,54.803c-1.475-2.029-3.938-3.649-6.814-4.791c2.889-1.143,5.364-2.767,6.844-4.803 c11.156-15.346,20.853-20.195,20.853-20.195s-9.696,4.849-30.615,5.546c-2.766,0.092-5.617,1.131-8.196,2.718 c0.301-2.739-0.084-5.408-1.379-7.536C50.014,9.698,50.014,0,50.014,0s0,9.698-9.763,25.741c-1.291,2.121-1.678,4.778-1.382,7.507 c-2.587-1.595-5.448-2.642-8.223-2.734C9.726,29.818,0.03,24.968,0.03,24.968s9.696,4.851,20.852,20.196 c1.475,2.029,3.939,3.649,6.814,4.791c-2.888,1.143-5.363,2.767-6.843,4.803C9.697,70.103,0,74.952,0,74.952 s9.697-4.849,30.615-5.546c2.765-0.091,5.617-1.13,8.196-2.716c-0.301,2.739,0.084,5.408,1.379,7.536 c9.764,16.041,9.763,25.741,9.763,25.741s0-9.7,9.763-25.741c1.291-2.122,1.678-4.78,1.383-7.508 c2.586,1.595,5.448,2.641,8.222,2.733c20.919,0.697,30.616,5.547,30.616,5.547S90.24,70.147,79.085,54.803z M48.09,52.797 c-0.062-0.586-0.191-1.154-0.414-1.69c-0.417-0.427-0.91-0.802-1.452-1.137c0.555-0.339,1.057-0.72,1.482-1.155 c0.218-0.526,0.347-1.084,0.411-1.657c0.617,0.246,1.249,0.433,1.896,0.534c0.635-0.1,1.257-0.281,1.863-0.521 c0.062,0.586,0.191,1.153,0.414,1.689c0.417,0.427,0.911,0.802,1.453,1.137c-0.555,0.34-1.058,0.721-1.482,1.155 c-0.218,0.526-0.348,1.084-0.411,1.659c-0.617-0.247-1.249-0.433-1.896-0.534C49.318,52.375,48.697,52.557,48.09,52.797z"/>
        </symbol>
    </defs>
</svg>
